<svg xmlns="http://www.w3.org/2000/svg" xml:space="preserve" width="100mm" height="100mm" viewBox="0 0 100 100"><defs><clipPath id="a" clipPathUnits="userSpaceOnUse"><circle cx="107.655" cy="74.194" r="44.879" style="fill:#000;stroke:#000;stroke-width:.241803;stroke-linecap:round"/></clipPath></defs><path d="M-214.479-59.856v-188.72h377.442v377.441h-377.442zm329.34 181.258c8.322-1.295 16.074-4.605 22.382-9.56l1.096-.86.773.759c.899.882 2.038 2.745 2.565 4.195.428 1.18.74 1.373 1.033.642 1.484-3.7 3.195-5.743 5.878-7.014a58 58 0 0 1 2.073-.946c.279-.11.507-.288.507-.394 0-.39-3.082-1.198-5.063-2.998l-1.097-.997c24.073-32.011-4.505-18.384-1.028-168.506 0-103.365-.007-105.387-.36-108.462-.199-1.723-.532-3.962-.74-4.975-.616-2.99-2.187-8.711-2.91-10.597-1.112-2.902-4.99-10.403-6.623-12.81-4.85-7.148-13.297-15.28-19.55-18.82-.479-.27-1.617-.93-2.53-1.465-.912-.534-3.392-1.77-5.511-2.746-3.216-1.48-4.486-1.954-7.672-2.86-2.1-.596-4.834-1.299-6.077-1.561-5.248-1.108 3.34-1.034-117.72-1.022-118.185.012-112.572-.028-116.843.84-3.434.7-8.404 2.027-10.46 2.794-4.204 1.57-10.59 4.832-14.283 7.297-2.796 1.866-7.294 5.645-9.86 8.282-5.794 5.958-9.976 12.062-13.023 19.012-2.644 6.03-4.568 13.53-5.134 20.014-.143 1.642-.183 34.171-.14 113.251 8.264 43.095-14.043 96.313 8.915 136.841 7.779 13.178 21.318 23.84 35.921 28.292 5.745 1.75 10.892 2.63 16.587 2.832 80.644-3.475 156.96-3.011 236.178 11.618l2.396.275c1.496.173 8.483-.066 10.32-.351m-10.044-5.266c-8.202-.67-15.368-3.416-22.149-8.486-2.4-1.795-6.64-6.049-8.427-8.457-5.421-7.299-8.134-15.026-8.518-24.261-.507-12.207 4.003-23.92 12.446-32.324 3.58-3.564 6.006-5.338 10.522-7.695 2.606-1.36 7.173-3.065 9.973-3.723 11.19-2.63 23.254-.282 33.245 6.468 8.926 6.03 15.644 16.485 17.68 27.513.922 4.997.934 11.148.03 16.238-2.011 11.33-8.67 21.348-18.608 27.992-3.727 2.492-8.784 4.693-13.109 5.704-4.05.948-9.17 1.351-13.085 1.031m7.99-10.317a36.2 36.2 0 0 0 7.506-4.82c6.265-5.218 9.926-12.776 10.754-22.202.356-4.054.182-12.318-.268-12.76-.1-.097-1.428-.427-2.953-.734-6.182-1.243-11.432-3.26-16.52-6.35-.779-.472-1.465-.858-1.526-.858s-.917.486-1.902 1.081c-5.039 3.042-9.842 4.868-16.252 6.179l-2.85.582-.138.64c-.279 1.297-.381 7.834-.17 10.837.803 11.384 4.752 19.185 12.677 25.046 2.905 2.147 7.985 4.744 8.905 4.55.253-.053 1.485-.589 2.737-1.19m-5.225-3.048c-3.28-1.652-5.466-3.212-7.838-5.592-2.367-2.377-3.619-4.088-4.952-6.772-1.532-3.085-2.518-6.512-3.065-10.657-.278-2.112-.445-11.038-.21-11.273.053-.053 1.17-.294 2.484-.536 4.206-.776 9.032-2.585 13.377-5.012a152 152 0 0 1 2.345-1.296c.07-.03 1.19.546 2.489 1.281 4.178 2.363 8.582 4.022 13.131 4.947 1.457.296 2.7.59 2.764.654s.11 2.203.104 4.754c-.012 5.03-.258 7.433-1.121 10.996-2.01 8.289-7.075 14.494-15.11 18.513-1.125.562-2.119 1.02-2.208 1.019-.09-.002-1.075-.464-2.19-1.026m2.83-4.693c.383-.989.429-1.394.405-3.593l-.026-2.48h3.333l.008 1.337c.006 1.023.107 1.525.43 2.143l.423.807.583-.948c.497-.808.583-1.124.583-2.143v-1.195h3.107l.228 1.022c.126.562.281 1.054.345 1.093.063.04.467-.513.896-1.227l.782-1.299-.053-1.776-.052-1.776h-2.028l-.056.876-.056.875h-3.113v-1.862l-.968.056-.967.055-.056.876-.057.875h-3.297v-1.843h-2.027v1.843h-3.317v-1.843h-2.028v1.843h-3.112l-.057-.875-.056-.876h-2.027l-.053 1.776-.052 1.776.781 1.299c.43.714.838 1.263.907 1.22s.181-.389.249-.77c.248-1.4.16-1.338 1.866-1.338h1.554v1.13c0 .922.104 1.31.567 2.119.311.544.6.99.641.99s.242-.329.447-.73c.276-.542.373-1.09.373-2.12v-1.39h3.29l.067 2.719c.057 2.357.121 2.835.482 3.594.23.481.475.875.547.875s.325-.501.563-1.115zm10.712-11.986c2.012-.432 3.167-2.415 2.348-4.033-.293-.58-1.275-1.244-2.188-1.48l-1.455-.378c-1.016-.264-1.375-.978-.748-1.486.633-.513 1.468-.44 3.152.273.192.08.404-.107.691-.61.228-.401.415-.805.415-.9s-.431-.356-.959-.583c-.804-.346-1.197-.4-2.442-.332-2.433.133-3.416.955-3.417 2.858-.001 1.414.665 2.109 2.612 2.724.81.256 1.632.55 1.826.654.494.265.44.848-.114 1.21-.594.39-2.065.246-2.974-.29-.349-.207-.67-.375-.714-.375-.204 0-1.026 1.476-.918 1.65.21.34 1.597.963 2.478 1.112 1.226.208 1.375.207 2.407-.014m-19.555-.27c1.154-.343 2.34-1.35 2.812-2.386.793-1.74.24-4.533-1.126-5.682-1.128-.949-1.725-1.096-4.52-1.118l-2.58-.02-.02 4.608c-.011 2.534.015 4.67.057 4.746.149.267 4.37.15 5.377-.149m-3.11-4.53v-2.79l1.255.09c.735.053 1.454.22 1.735.404.65.426 1.064 1.367 1.064 2.419 0 1.7-1.094 2.666-3.022 2.666h-1.032zm9.952 2.052c0-1.52.062-2.76.138-2.756s1.05 1.229 2.166 2.719l2.027 2.709.967.056.968.055v-9.602h-2.202l-.05 2.703-.052 2.704-2.09-2.713-2.09-2.712-.95.055-.952.055-.049 4.512c-.027 2.481-.009 4.617.04 4.745.058.15.456.234 1.11.234h1.019zM100.3 72.93v-1.567h3.134v3.133h2.027v-3.133h3.317v3.133h2.028v-3.133h3.318v3.133h2.026v-3.133h3.133v3.152l1.06-.056 1.06-.055.051-2.534.051-2.534H98.09v2.457c0 1.352.055 2.513.123 2.58s.565.123 1.106.123h.983zm32.002 32.574c-.05-.177-.187-.802-.304-1.389-.233-1.177-.866-2.112-3.684-5.443l-1.566-1.852-1.052 1.14c-.579.627-1.055 1.212-1.06 1.3-.009.176 2.719 3.356 4.047 4.72a5.95 5.95 0 0 0 2.027 1.34c1.433.585 1.715.618 1.592.184m-3.7-42.48c-.055-.33-.225-1.926-.379-3.548a226 226 0 0 0-.384-3.794l-.104-.844 1.395-1.378 1.396-1.377v-3.623c0-4.278.136-4.047-2.351-3.965l-1.612.053-.053 1.712-.053 1.712-1.606-.054-1.605-.053-.053-1.704-.053-1.705h-2.185c-1.822 0-2.204.048-2.297.291-.061.16-.112.952-.112 1.759v1.466l-1.52-.053-1.52-.054-.054-1.59-.052-1.592-.57-.113c-.73-.147-2.8-.148-3.18-.002-.252.097-.291.606-.291 3.797v3.686l1.262 1.317 1.263 1.316-.162 1.751c-.157 1.694-.149 1.762.258 2.102.661.554 4.65 2.407 6.778 3.148 2.399.837 6.52 1.922 7.334 1.931.584.007.604-.017.51-.592M98.65 61.686c.749-.254 1.445-.546 1.546-.647q.184-.185-1.132-1.518c-1.316-1.334-1.316-1.334-1.216-2.184.088-.743.046-.888-.33-1.152-.668-.467-1.305-.363-2.375.39-1.223.86-1.722 1.52-1.722 2.28 0 .793.825 1.53 1.552 1.384.443-.089.609.025 1.306.896.439.548.845 1 .904 1.006.058.004.718-.2 1.467-.455m-5.758-4.744c.266-.32.096-.583-2.266-3.516-1.953-2.426-3.5-4.7-3.32-4.88.241-.242 5.247 4.59 6.407 6.185.313.431.618.78.676.778.06-.004.31-.176.56-.383l.451-.376-.308-2.417c-.17-1.329-.415-2.52-.544-2.646-.473-.461-11.799-6.889-12.14-6.889-.113 0-.166.104-.117.23 2.773 7.094 4.627 11.8 4.849 12.313.28.643.327.666 2.53 1.225 2.569.651 2.956.697 3.222.376m-228.491 25.204c-.963.241-2.54.57-3.502.733-2.239.376-4.22.795-9.584 2.025a577 577 0 0 1-8.385 1.846c-2.23.47-4.21.939-4.401 1.044-.423.232-.8.3-2.263.41-.998.073-1.181.034-1.522-.329-.213-.226-.324-.481-.248-.566s.042-.098-.077-.03c-.12.07-.27.04-.334-.062-.063-.103-.017-.187.102-.187.163 0 .16-.07-.011-.277-.313-.376-.568-.349-.426.046.132.368.18.405-2.203-1.685-1.922-1.686-6.175-6.645-7.997-9.327-.882-1.297.555.547.979 1.045.187.22.603.718.924 1.106l1.019 1.23.433.523 2.3-.462c1.264-.255 2.71-.523 3.214-.597.913-.134 1.552-.51 1.217-.717-.096-.06-.251.029-.345.196-.116.207-.211.238-.299.096-.07-.114-.061-.21.02-.21.083-.002.026-.084-.126-.182-.225-.146-.201-.18.127-.182.544-.004.718-.33.215-.404-.22-.033-.422-.204-.448-.382-.045-.315.444-.41 1.859-.362 1.213.042 4.63.64 4.871.854.24.212.56.215 1.974.018.928-.13 1.787-.297 1.909-.373.14-.087.184-.382.119-.805-.057-.367-29.671-102.227-29.65-119.472l.041-31.355.76.102c.417.056.853.203.967.328.16.174.128.197-.14.102-.303-.107-.316-.084-.104.171.173.209.437.268.901.202.361-.051.504-.05.318.003-.262.073-.143.194.518.53.472.238.956.395 1.077.349.12-.047.622.248 1.115.655.492.407.799.74.682.74s-.39-.166-.607-.37c-.432-.402-.695-.471-.695-.183 0 .1.075.184.167.184s.124.166.07.368c-.052.203-.012.369.09.369s.173.145.16.323c-.02.244.114.322.558.321.463 0 .542.05.382.243s-.092.231.337.185c.297-.032.59-.128.653-.214s.276.08.474.369c.58.843 1.902 4.1 1.882 4.638l-.018.493-.148-.46c-.126-.396-.148-.356-.151.276-.002.405.038.633.089.507.186-.461.43-.214.43.434 0 .637.023.66.508.527 1.94-.528 3.593-.38 4.743.423.407.284 1.017.984 1.356 1.555l.616 1.04.839-.533c.957-.607 2.519-1.171 2.86-1.034.126.051.063.103-.14.115-.387.023-2.53.911-2.211.916.101.002.674-.16 1.272-.36 1.05-.352 2.52-.525 1.689-.2-.245.097-.288.182-.138.275.12.074.306.08.414.014.107-.067.37.032.584.22.214.187.322.225.24.086-.104-.176-.07-.227.106-.166.14.05.233.22.204.382-.043.243.045.264.53.125l.581-.167-.345.394c-.19.217-.248.337-.128.267s.271-.04.336.065c.066.106.05.177-.033.158-.266-.059-.798.242-.702.398.124.201-.87.407-1.968.407-.49 0-.891.057-.891.126 0 .07-.664.122-1.475.117-.864-.005-1.475.067-1.477.175-.002.101-.076.069-.166-.073-.093-.146-.294-.206-.47-.14-.168.065-.26.193-.203.285.145.235-.34.386-.64.2-.139-.086-.463-.13-.721-.1-.258.032-.366.02-.24-.025.128-.045.231-.164.231-.263 0-.1-.086-.129-.192-.063-.106.065-.32.012-.477-.118-.242-.2-.276-.182-.223.123.035.197.143.416.24.485.103.075.027.298-.184.539-.2.226-.26.351-.134.278.165-.096.21.021.163.425-.038.325.01.512.112.448.098-.06.144.046.103.235-.041.19-.194.322-.34.296-.154-.029-.093.099.146.303.354.303.37.369.117.466-.198.076-.266.263-.207.572.049.252.012.458-.082.458-.093 0-.123.076-.066.168.147.237-.087.772-.283.65-.09-.055-.113.029-.053.187.06.157.05.514-.023.792-.12.455-.147.47-.267.145-.092-.25-.14-.106-.154.46-.022.888-.626 2.663-.834 2.455-.07-.07-.114.073-.097.318.04.588-1.078 4.26-1.346 4.425-.115.071-.238.642-.274 1.27-.035.626-.124 1.235-.196 1.351a1.3 1.3 0 0 0-.156.492c-.014.154-.096.57-.183.925l-.179.737c-.012.051-.088.539-.169 1.084-1.242 27.832-3.871 13.9 2.487-8.59.626-2.154 2.779-8.243 3.204-9.065.418-.809 1.404-1.66 2.035-1.759.304-.047 3.663-.13 7.464-.185 3.837-.055 7.684-.202 8.648-.33l1.737-.23.475-.921c1.113-2.157 3.188-4.408 5.66-6.142.944-.662 1.144-.908 1.435-1.765.664-1.953 2.404-3.532 5.106-4.632l.852-.347.764-2.588c.42-1.423.763-2.663.76-2.755-.002-.092-.49-.88-1.085-1.75-1.402-2.053-1.91-3.08-2.918-5.9-1.295-3.623-1.543-5.045-1.66-9.506-.121-4.684.133-6.663 1.338-10.401 1.802-5.591 4.922-10.152 9.367-13.696 1.001-.798 2.465-1.825 3.253-2.283l1.432-.832-.097-1.422c-.084-1.22-.04-1.533.308-2.215.374-.735.382-.818.106-1.124-.516-.57-2.516-1.357-3.667-1.444-1.753-.131-2.86.222-4.842 1.547-.974.652-1.839 1.184-1.922 1.184-.4 0-1.097-.464-1.204-.801-.118-.375-.122-.375-.45.03-.181.225-.595 1.216-.92 2.202-1.358 4.129-2.917 5.947-4.596 5.362-.27-.094-.663-.473-.874-.841l-.382-.67-.595 1.184c-.807 1.604-2.723 3.451-4.472 4.312-4.155 2.045-9.124 1.317-12.45-1.825-1.605-1.516-2.38-3.28-1.794-4.078.235-.32.494-.36 2.351-.36 1.836 0 2.196-.053 2.994-.446 2.105-1.036 3.08-2.69 4.258-7.22 1.306-5.023 2.359-7.088 4.738-9.29 1.363-1.262 3.93-2.704 5.94-3.338.637-.201 1.057-.447 1.124-.66.06-.187.398-.72.753-1.185l.646-.846-1.35.134c-2.449.244-4.415 1.086-7.319 3.136-1.424 1.005-1.901 1.148-2.508.75-.616-.403-.75-1.073-.476-2.404 1.19-5.792 6.88-11.19 13.615-12.915 2.793-.715 7.03-.637 9.858.183 2.863.83 5.842 2.55 8.095 4.676.688.65 1.251 1.1 1.251 1.004s-.372-1-.826-2.004c-.962-2.125-1.03-2.703-.369-3.135 1.275-.836 5.583 1.28 8.024 3.943 1.45 1.582 2.79 4.268 3.23 6.473.462 2.328.293 5.848-.382 7.94-.49 1.516-1.628 3.938-2.548 5.42l-.447.721 1.036.978c.929.875 1.122.978 1.865.985 1.198.012 3.912.341 5.522.67 3.003.615 6.175 1.967 9.052 3.86 1.284.844 1.616.989 1.921.833.203-.103.908-.48 1.567-.837 1.406-.762 2.261-.828 2.973-.23 1.514 1.275 4.005 4.716 5.365 7.412 2.522 5.002 3.779 9.659 3.96 14.681.092 2.51.07 2.76-.302 3.53-.416.86-1.79 1.946-4.093 3.24-.976.547-1.042.629-1.152 1.431-.064.469-.117 1.803-.117 2.965v2.113l1.806 3.344c2.218 4.11 2.249 4.181 2.249 5.203 0 1.513-1.14 3.031-2.812 3.745-1.002.427-1.052.522-1.572 2.975-.334 1.577-1.088 3.8-1.952 5.754-.238.539-.254.71-.073.76 3.458.961 5.504 2.165 7.787 4.581 1.473 1.559 1.84 1.846 2.772 2.166 1.576.543 54.276-.204 54.51-.06.103.064.133.028.067-.08-.229-.37 2.537-2.633 3.197-2.617.152.004.041.134-.247.29-.287.156-.476.33-.419.388s.223.005.369-.116c.162-.135.307-.15.374-.042.06.098.005.222-.122.276s.1.083.506.062c.553-.028.723.029.68.225-.04.19.01.21.185.072.132-.103.421-.233.642-.286.37-.091.385-.063.186.373-.159.349-.16.49-.006.541.115.038.166.231.115.43-.054.205-.002.359.122.359.12 0 .159-.103.087-.23-.096-.17-.062-.167.127.01.284.264 1.154-1.558 1.207-2.268.233-3.164 144.462 57.194 144.743 57.483.09.092 1.369.198 2.843.236 2.469.063 2.682.043 2.693-.259.009-.245.056-.216.187.112.204.51.177 5.24-.032 5.578-.108.175-.248.179-.602.017-.335-.153-1.206-.162-3.192-.035-3.925.25-9.83.2-16.161-.141-4.925-.265-5.522-.266-5.662-.016-2.454 4.385-16.193 15.559-18.115 10.549q-.097-.25.204-.132c.23.088.27.038.173-.214-.093-.242-.054-.302.143-.226q.265.099.172-.15c-.055-.144.088-.35.332-.479.236-.124.47-.28.521-.346.22-.286 1.437-1.114 1.638-1.114.121 0 .32-.084.443-.187a39 39 0 0 1 1.974-1.472c.226-.152.63-.441.896-.642l.67-.504c.56-.421 2.692-1.803 2.78-1.803.056 0 .228-.125.381-.278s.357-.23.452-.17c.096.058.152.001.124-.128-.028-.13.22-.327.553-.44.332-.112.546-.26.476-.33s-.03-.128.087-.128c.119 0 .215.064.215.143s.332.111.738.073c.687-.066 1.072-.4.46-.4-.152 0-.276-.1-.276-.222 0-.172-.05-.172-.221 0-.122.122-.307.221-.41.221-.293 0 1.506-1.59 2.166-1.915.358-.176.46-.29.264-.292-.176-.002-1.006.492-1.843 1.099-.838.606-1.896 1.372-2.352 1.7-.456.33-1.99 1.44-3.41 2.47-1.419 1.03-3.037 2.15-3.596 2.492-1 .611-5.65 3.766-6.342 4.303-.195.152-.312.32-.26.372.19.189-219.372 69.348-223.583 70.402m-30.963 4.166c0-.09-.136-.217-.302-.28-.253-.098-.264-.07-.07.164.266.32.372.353.372.116m14.452-4.775c.934-.037 1.027-.262.145-.35-.274-.026-2.613-.088-5.197-.136s-4.741-.099-4.792-.113c-.05-.015.281-.139.737-.276l.83-.249-.922.097c-.916.097-4.993.77-5.345.883-.101.032 1.796.066 4.215.075 2.42.009 4.424.04 4.454.07.06.06 4.393.058 5.875-.001m21.315-2.997c.17-.107-.395-.178-1.58-.198-1.013-.017-1.925-.044-2.027-.06a74 74 0 0 0-1.652-.176c-1.356-.135-1.44-.167-1.106-.422.347-.264.343-.27-.098-.142-.571.166-.5.091-.652.694l-.129.514 3.49-.022c1.92-.011 3.608-.096 3.754-.188m-12.914-.587c0-.414-.536-.647-.738-.32-24.083 38.967 107.196-279.325-10.222-1.615-.075.177-.397.39-.716.475-.535.141-.495.162.526.277.609.068 1.811.038 2.673-.067.861-.105 2.271-.272 3.133-.37.861-.1 2.029-.247 2.594-.328.565-.08 1.124-.114 1.244-.075.133.045.216.487.216 1.148 0 1.121.108 1.273.876 1.232.269-.015.414-.14.414-.357m12.114-1.355c-.061-.062-.22-.068-.353-.015-.147.059-.103.103.111.111.195.008.303-.035.242-.096m-10.236-.79q299.229-79.008 0 0M44.69 23.832c2.282-.771 2.404-.86 1.512-1.094-.4-.105-1.865-.41-3.254-.676-6.129 1.47-13.556-2.835-.212 1.765.41.156.46.229.243.366-.487.308.095.185 1.711-.361m6.41-2.52c1.61-.655 4.127-1.928 4.203-2.127.034-.09.127-.122.207-.072.15.092 2.667-.902 4.8-1.896.74-.345 1.092-.595.92-.656-.955-.337-8.637-1.677-8.783-1.53-.1.1 1.134.49 1.56.491.133 0 .19.084.128.185-.063.102-.021.185.092.185.114 0 .157.079.098.175-.06.097.234.268.653.381.418.113.732.226.696.253-.166.122-1.803-.128-1.72-.262.052-.084-.002-.213-.12-.287q-.216-.133-.068.107c.116.188-.036.219-.71.143-1.444-.163-.95.162.711.467.872.16 1.703.423 1.872.592.167.168.499.378.736.469.603.229.54.478-.184.717-.635.21-1.447.075-1.046-.173.116-.072-.312-.144-.952-.16s-2.059-.159-3.152-.316c-1.094-.158-2.13-.257-2.304-.22-.324.07 1.935.471 3.533.627.855.084 1.519.444 1.273.69-.217.217-.606.113-.606-.162 0-.31-.469-.377-.645-.093-.063.102-.238.185-.39.185s-.231-.074-.176-.164c.149-.24-.667-.405-.928-.188q-.225.187-.343-.008c-.19-.307-.841-.24-.72.075.083.218-.001.239-.454.109-.307-.088-.842-.096-1.19-.017-.349.079-.762.07-.92-.018-.167-.093-.485-.084-.762.02-.336.129-.475.12-.475-.025 0-.114-.191-.008-.425.235-.49.51-.817.619-1.116.371-.137-.114-.333-.086-.562.081-.339.248-.336.263.093.45l.443.195-.46-.1c-.254-.055-.834-.14-1.29-.189-.671-.071-.566-.014.552.3 1.107.312 6.21 1.556 6.65 1.621.058.009.634-.199 1.28-.461m-2.217-.26c0-.101.087-.184.195-.184.107 0 .144.083.081.184s-.15.184-.195.184-.081-.083-.081-.184m5.436-2c-.202-.066-.383-.205-.401-.31-.046-.267.721-.244 1 .03.437.43.2.54-.599.28m1.901-1.628c.133-.053.292-.046.353.015s-.047.105-.242.097c-.214-.009-.258-.053-.111-.112m-.2.936c-.06-.06-.22-.067-.353-.014-.147.059-.103.102.111.111.195.008.304-.035.242-.097m15.058-4.432c.434-.938 1.086-1.543 2.062-1.916l.53-.203-.46-.256c-1.597-.887-3.511.667-3.795 3.083 1.122 8.384 1.01.822 1.663-.708m2.898-.432q-24.48 14.461 0 0M48.28 17.622c-.061-.061-.22-.068-.353-.014-.147.059-.104.102.11.111.195.008.304-.036.243-.097m-3.452-.702c-5.418-1.323-3.557-.647-1.127-.03.933.236 1.728.46 1.767.498s.47.085.96.104c.66.026.252-.12-1.6-.572m6.911-.66c-.202-.088-.742-.154-1.198-.148-.824.011-.825.012-.184.147.355.075.894.141 1.198.147.467.01.496-.013.184-.147m-3.317-.458c-.71-.127-1.684-.29-2.166-.36-.598-.086-.875-.214-.875-.403 0-.152-.077-.228-.172-.17s-.231.009-.305-.11c-.083-.134-.053-.166.08-.084.136.084.213-.013.213-.268 0-.285-.082-.367-.286-.289-.164.063-.238.032-.174-.072.062-.1-.037-.184-.22-.185a1.3 1.3 0 0 1-.61-.196c-.21-.146-.144-.17.276-.097.304.053 1.05.14 1.659.195-12.277-1.95-11.196.481.921 2.023 2.165.308 3.342.32 1.659.017m5.068-.023c0-.153-.358-.24-.44-.106-.053.086.024.156.172.156.147 0 .268-.023.268-.05m12.275-1.167c1.164-.545 1.547-.814 1.547-1.084 0-.543 1.404-2.533 2.274-3.224.422-.335 1.1-.753 1.506-.929.661-.286.845-.526 1.75-2.29a186 186 0 0 0 1.07-2.1c.033-.072-.216-.173-.552-.225-.336-.051-1.689-.262-3.007-.469a118 118 0 0 0-4.976-.644c-1.419-.148-2.953-.314-3.41-.37l-.829-.101.891.26c.49.144.93.299.976.346.104.103-1.255.26-3.687.423-1.346.09-1.902.204-2.134.435-.172.172-.46.37-.641.44-.258.098-.305.055-.216-.2.098-.282.083-.288-.118-.045-.141.17-.622.3-1.24.334-.555.03-1.115.144-1.244.251-.167.139-.314.13-.509-.032-.15-.126-.4-.18-.553-.12-.153.058-.279.037-.279-.047s-.207-.113-.46-.065c-.254.049-.461.01-.461-.086s-.27-.148-.6-.118c-.454.043-.5.024-.189-.078.309-.1.366-.201.233-.41-.097-.152-.177-.211-.179-.132-.001.08-.163.059-.36-.046q-.356-.191-.471-.007c-.182.295-.46.215-.476-.137-.01-.205-.05-.236-.11-.085-.078.195-.15.195-.39 0-.242-.196-.267-.194-.144.01.12.2.076.21-.216.053-.202-.107-.412-.15-.468-.095-.14.14-.869-.27-.869-.489 0-.098.124-.178.276-.178s.277.125.277.277c0 .31.034.322.444.165.16-.062.24-.195.177-.296-.07-.114-.182-.09-.292.065-.127.18-.15.128-.08-.184.083-.38.038-.423-.364-.346-.311.06-.432.016-.373-.136s-.064-.196-.386-.134c-.356.068-.434.03-.321-.152.108-.176.065-.21-.157-.125-.169.065-.307.043-.307-.047 0-.091-.145-.201-.322-.245s-.02-.07.35-.06c.37.012.634.083.588.159s.042.138.197.138c.175 0 .241-.105.175-.278-.074-.191 0-.268.236-.247.188.017.592.016.896-.002.43-.025.49-.071.276-.21-.202-.131-.054-.184.553-.196.456-.01.746-.05.645-.09C49.232 1.221 43.896.41 43.12.41c-12.622 2.252-5.5 2.97 2.814 4.514 9.223 1.72 12.798 2.291 10.536 1.686l-.797-.213.365-.421c.265-.306.395-.356.475-.183.07.152.145.168.206.043.052-.107.342-.177.644-.157.302.021.505-.034.45-.122-.228-.369 2.003-.51 8.383-.528 3.765-.01 4.104-.038 3.778-.297-.397-.316-.51-.32 1.577.039.456.078.947.145 1.091.149s.3.121.347.262c.064.195-.034.226-.415.13-.328-.082-.46-.06-.382.066.065.106.028.192-.081.192-.285 0-.617.85-.808 2.069q-.11.72-.577.33c-.23-.191-.28-.182-.28.056 0 .189-.127.264-.37.217-.222-.043-.368.028-.368.18a.4.4 0 0 1-.23.343c-.127.051-.065.101.138.11.297.015.317.05.101.187-.147.093-.346.12-.443.061-.097-.06-.116-.013-.044.104s.044.213-.064.213a.2.2 0 0 0-.195.204c0 .116.135.153.312.084.279-.106.276-.08-.02.25-.293.322-.368.334-.603.1-.296-.297-.438-.342-.404-.131.058.367-.04.61-.206.507-.102-.063-.185-.034-.185.065 0 .197-.118.185-1.198-.118-.994-.28-7.491-1.363-7.588-1.266-.063.063 2.34.583 3.442.745 1.864.274 3.208.583 3.41.786.137.137.385.249.55.249.177 0 .288.133.269.322-.056.546 0 .652.24.456.16-.131.297-.116.448.048.274.298-.284 1.505-.66 1.424-.134-.029-.338.061-.454.2-.274.332-1.493.626-2.421.585-.406-.018-1.26-.045-1.9-.06s-1.122-.092-1.072-.173-.15-.164-.445-.187a4.3 4.3 0 0 1-1-.218c-.341-.129-.47-.116-.481.05-.012.172-.037.171-.108-.006-.051-.126-.174-.23-.273-.23s-.116.104-.038.23c.078.127-.093.077-.38-.11-.287-.189-.466-.25-.397-.139.187.303-.379.247-.694-.068-.24-.24-.285-.238-.381.013-.13.338-1.26.243-3.797-.317-.861-.19-2.188-.477-2.949-.637-1.466-.308-2.244-.69-.89-.437.565.105.867.082 1.035-.082.262-.254 1.387-.168 1.225.093-.056.09-.013.164.094.164.226 0 .249-.195.054-.462-.17-.234-1.608-.348-3.369-.268a9 9 0 0 1-1.612-.093q-.774-.13-.775.07c0 .11-.08.2-.179.2s-.125-.139-.06-.308c.085-.221.042-.28-.152-.205-.148.057-.427-.012-.62-.152-.228-.167-.263-.256-.1-.256.138 0 .2-.05.14-.111-.06-.06-.219-.044-.35.038-.133.081-.503.125-.824.098-.32-.028-.637.038-.704.146-.067.109-.205.197-.306.197s-.133-.083-.07-.184c.062-.101.046-.19-.036-.198-6.038-.575-3.933-.011 7.776 2.127 1.962.358 13.524 2.724 13.887 2.842.036.011.762-.306 1.613-.705m-21.34-3.823c.133-.054.292-.047.353.014s-.047.105-.242.097c-.214-.009-.258-.052-.111-.111m25.802-2.212c.133-.053.292-.047.353.015.061.06-.048.104-.242.096-.215-.008-.258-.052-.111-.11M55.21 6.04c0-.148.07-.226.154-.174a.35.35 0 0 1 .153.269c0 .095-.069.173-.153.173-.085 0-.154-.12-.154-.268m18-.838c0-.101.088-.184.195-.184s.144.083.081.184c-.062.102-.15.185-.195.185-.044 0-.081-.083-.081-.185M46.528 4.28c.028-.117-.156-.34-.41-.495-.442-.27-.445-.269-.092.032.355.303.34.31-.415.189-.518-.084-.783-.058-.783.074-5.73 4.29-5.892-5.437-1.56-1.517.18.18.605.312 1.014.314.602.004.68.05.537.315-.125.233-.08.333.177.4.19.05.457.02.595-.068.138-.087.479-.16.758-.162.415-.002.506.079.506.447 0 .248-.085.503-.188.567-.104.064-.167.02-.139-.096m5.622 10.579c-.061-.061-.22-.068-.353-.015-.147.06-.103.103.111.112.195.008.303-.036.242-.097m-.921-.185c-.062-.06-.22-.067-.354-.014-.147.059-.103.102.112.111.194.008.303-.035.242-.097m-1.886-.36c-1.277-.288-1.49-.311-1.322-.145.15.15 1.349.39 1.967.392.254.002-.036-.11-.645-.247m-1.704-.387a.7.7 0 0 0-.461 0c-.127.05-.023.093.23.093.254 0 .357-.042.23-.093m11.38-.984c0-.102-.088-.184-.195-.184s-.144.082-.081.184.15.184.195.184c.044 0 .081-.083.081-.184m.31-.219c-.059-.147-.102-.103-.111.111-.008.195.035.303.097.242.06-.061.067-.22.014-.353M-125.74-48.405c-2.273-1.91-6.484-6.052-9.25-9.101-1.551-1.71-2.425-2.534-2.684-2.534-.21 0-1.51.368-2.887.817-6.409 2.093-12.769 3.033-21.71 3.211-6.618.132-6.24.048-6.742 1.5-.157.457-.709 2.022-1.225 3.478-1.028 2.897 82 34.127 44.498 2.629m-43.56 6.518c1.967-7.377 2.923-9.966 3.738-10.13.21-.042 2.622-.12 5.359-.171 5.149-.098 8.49-.389 11.98-1.043 2.067-.388 5.987-1.396 7.44-1.914.974-.347 1.696-.367 2.086-.057.16.126 1.034 1.1 1.944 2.165 21.252 17.45-34.459 18.315-32.547 11.15m39.69-1.818c-3.102-2.55-3.273-2.709-6.819-6.32l-3.317-3.38-1.198.369c-2.02.621-7.575 1.81-10.262 2.196-3.092.445-9.501.832-11.693.707-.88-.05-1.697-.03-1.817.043-.119.074-.505 1.079-.856 2.234-5.366 17.608-7.837 44.069 3.272 9.194 1.36-4.273 1.726-4.567 4.47-3.6l1.267.448 2.51-1.309c1.382-.72 2.926-1.521 3.433-1.781 1.346-.691 2.563-.618 5.453.325 1.276.416 2.464.757 2.64.757.6 0 6.095 1.875 6.768 2.31.538.346.917.919 1.91 2.885.682 1.35 13.191 2.188 4.24-5.078m-10.306-8.226c.067-.253.193-.585.279-.737.139-.246.156-.246.155 0 0 .152-.126.484-.278.737l-.278.46zm-18.234 12.998c.43-1.387.437-1.483.133-1.705-.177-.13-.673-.235-1.102-.235-.775 0-.784.008-1.148.98-.201.538 1.867 1.768 2.117.96m21.394-1.207c-.225-.097-1.82-.597-3.543-1.11a283 283 0 0 1-5.946-1.857l-2.813-.922-3.084 1.7a301 301 0 0 0-3.461 1.926c-.264.158-.476.648-.71 1.64-1.376 3.524 4.079-.935 5.518-1.674l2.039-1.03 4.966 1.608c2.73.884 7.306-.164 7.034-.28m-9.225 1.555c.086-.225-.935-.626-1.6-.628-.638-.003-3.435 13.75 1.6.628M56.116 12.82a.7.7 0 0 0-.46 0c-.127.05-.023.093.23.093s.357-.042.23-.093m2.491-.501c-.176-.134-.258-.31-.184-.392s.028-.088-.104-.012c-.184.106-.19.198-.024.398.12.143.31.258.424.254.114-.003.064-.115-.112-.248m8.507-.171c-.01-.157-.041-.154-.108.012-.052.127-.182.176-.29.11-.118-.073-.144-.035-.064.094.156.253.483.1.462-.216m-13.341-.904c.08.072.085.028.012-.099-.161-.28-.663-.307-.663-.035 0 .107-.083.144-.185.081s-.184-.021-.184.092-.087.152-.193.087q-.195-.118.046-.414c.206-.254.192-.277-.104-.166-.262.098-.317.06-.232-.16.063-.165.033-.24-.072-.175-.1.062-.182.232-.182.378s-.088.266-.195.266-.147.08-.087.176c.06.097.223.133.361.08.139-.053.307-.009.373.1.083.133.287.11.64-.073.286-.148.585-.21.665-.138m1.525-.242c-.057-.057-.16.045-.23.227-.1.263-.078.284.104.103.126-.125.182-.273.126-.33m1.786.097c.063-.101-.02-.184-.184-.184s-.247.083-.185.184c.063.101.146.184.185.184.038 0 .121-.083.184-.184m-2.525-.725c.046-.606-.253-.903-.578-.575-.164.165-.133.185.13.085.287-.11.323-.066.218.264-.104.327-.02.767.146.767.024 0 .061-.244.084-.541m22.215-2.51c5.1-9.726 14.2-27.892 17.628-35.191.333-.71 1.516-3.198 2.628-5.53 1.112-2.33 2.17-4.611 2.35-5.067.182-.456.76-1.742 1.286-2.857a78 78 0 0 0 1.51-3.41c.303-.76 1.076-2.584 1.717-4.054 2.853-6.55 3.939-9.216 7.84-19.26 5.04-12.974-.217-4.431-1.262-1.566-.61 1.673-1.456 3.87-1.88 4.884s-1.434 3.46-2.245 5.437a336 336 0 0 1-2.818 6.635c-.738 1.672-2.172 4.948-3.186 7.28C95.035-32.633 86.448-14.725 79.043-.42a567 567 0 0 0-2.926 5.713A51 51 0 0 1 74.463 8.3c-.508.842-.894 1.558-.858 1.591.295.268 1.393.827 1.54.783.101-.03.835-1.294 1.63-2.81M44.615 9.803c.044-.132.145-.128.315.014.31.257.755.038.481-.236-.102-.102-.143-.32-.09-.486.07-.221.05-.238-.076-.063-.256.356-1.462.959-1.624.812-.078-.07-.086-.029-.016.092.145.254.915.153 1.01-.133m6.848-.179c-.152-.098-.36-.178-.46-.178-.102 0-.06.08.091.178.152.099.36.18.461.18s.06-.081-.092-.18M43.13 7.997c7.092-.067 7.013-.063 5.937-.263-.558-.104-.911-.225-.786-.27.125-.044.99.05 1.922.21 2.7.465 2.683.311-.03-.263-2.588-.548-6.569-1.047-6.767-.85-.062.063.025.115.193.115.353 0 .426.361.077.382-.126.008-.364.04-.528.073s-1.625.881-.018.866m4.756.935c-.322-.307-.328-.304-.137.07.11.214.174.432.142.483-.03.051.03.02.137-.07.13-.109.085-.266-.142-.483m2.653.432c-.207-.207-1.1-.321-1.467-.187-.441.16.064.363.895.36.445-.003.673-.072.572-.173m-5.985-.338c-.07.139.006.23.194.23.238 0 .262-.057.104-.247-.113-.136-.156-.297-.096-.357s-.048-.067-.24-.017-.361.261-.377.47c-.028.367-.02.368.252.034.154-.189.228-.24.163-.113m2.02.054c.06-.097.23-.13.38-.073.148.057.27.013.27-.098s-.201-.185-.447-.165c-.247.02-.412.095-.368.167.044.07-.024.171-.151.222-.166.067-.17.098-.012.108a.39.39 0 0 0 .328-.161M58.7 8.95c-.125-.05-.374-.053-.553-.006s-.077.088.227.092c.304.003.45-.035.326-.085m-2.495-.358c-.062-.062-.22-.068-.354-.015-.147.059-.103.103.112.111.194.008.303-.035.242-.096m-.822-.194c-.125-.05-.374-.054-.553-.007s-.077.088.227.092.45-.035.326-.085M50.638 8c-.056-.056-.205 0-.33.126-.18.182-.16.203.103.103.182-.069.284-.172.227-.229m31.31-2.265c.195-.177-.056-.278-1.013-.41-.645-.09-.673-.068-1.16.926l-.5 1.017 1.253-.69c.688-.38 1.328-.759 1.42-.843m-39.101.633a.7.7 0 0 0-.46 0c-.128.051-.024.093.23.093.253 0 .357-.042.23-.093m21.552-.388c-.122-.04-.167-.17-.1-.289.069-.118.053-.15-.034-.07-.294.267-.25.666.061.546q.29-.112.073-.187m3.721-.513c.063-.164.032-.238-.072-.173-.1.062-.183.19-.183.286 0 .265.132.207.255-.113M86.486 2.87c1.748-1.14 2.14-1.471 1.884-1.586-.24-.107-.21-.123.113-.06.275.053.824-.133 1.475-.5l1.036-.586L88.6-.078c-5.315-.481-5.173-.476-5.39-.214-.316.381-2.074 3.877-2.074 4.125 0 .223 2.192.638 2.816.534.18-.03 1.321-.704 2.535-1.497m-.118-1.017c-.045-.074.097-.1.316-.057.547.105.665.26.17.222-.221-.017-.44-.09-.486-.165m.895-.738c-.33-.204-.6-.289-.6-.189 0 .258-1.472.152-1.64-.118-.086-.14-.45-.197-.979-.153-.851.071-.907.014-.621-.64.15-.344.488-.324 5.36.315.203.027.477.056.61.064s.195.09.138.183c-.057.091-.29.126-.518.076-.34-.075-.365-.054-.138.117.229.173.196.204-.184.18-.998-.062-1.168-.009-.921.289.287.347.234.334-.507-.124M60.54 3.052a.7.7 0 0 0-.461 0c-.127.051-.023.093.23.093.254 0 .357-.042.23-.093m-1.613-.247a5.3 5.3 0 0 0-1.106-.138c-.533.003-.53.008.092.138.355.075.853.137 1.106.139.409.002.398-.014-.092-.139m16.554-.598c.6-.922 1.857-3.447 1.76-3.535-.089-.08-8.828-1.038-9.191-1.007-.267.022.498.21 1.843.452q1.744.314-.923.258c-.962-.02-1.833-.017-1.934.007a1 1 0 0 1-.336.018c-.084-.015-.1.058-.035.162.066.108-.066.19-.31.192-.327.002-.364.041-.16.17.147.093 1.966.177 4.044.188 3.942.021 4.372.104 4.153.795-.2.632-.21 1.5-.02 1.925.128.288.116.489-.039.676-.216.26-.163.305.54.46.054.012.327-.33.608-.761m-1.031-.68c-.055-.209-.033-.42.048-.471.215-.133.413.491.217.687-.098.098-.206.01-.265-.215M50.073-5.135c.112-.108.036-.27-.206-.439-.313-.22-.398-.521-.472-1.667-.05-.77-.184-1.493-.299-1.608-.118-.118-1.277-.274-2.653-.358-38.395-2.341-9.55 16.86 3.63 4.072M57.038 2.5a.7.7 0 0 0-.46 0c-.128.051-.024.093.23.093.253 0 .357-.042.23-.093m13.542-.358c-.061-.061-.22-.068-.353-.014-.147.059-.104.102.111.111.194.008.303-.036.242-.097M48.514-42.155c0-.287-.313-.236-1.284.209-.841.386-.92.49-2.023 2.718-6.608 13.333 3.307 35.643 3.307-2.927M69.34 1.997c0-.04-.245-.107-.543-.15-.3-.045-.502-.013-.45.07.091.148.993.22.993.08m-1.382-.215c-.333-.133-6.62-.989-6.696-.912-.117.116.605.26 3.194.632 2.202.318 3.947.457 3.502.28M60.816.835c-.177-.046-.323-.211-.323-.366 0-.176.105-.243.277-.177.158.06.276.004.276-.134 0-.168.344-.248 1.152-.269.634-.015 1.4-.055 1.705-.088.304-.033.885-.078 1.29-.1.608-.033.68-.073.408-.232-.181-.105-.43-.157-.553-.116-.123.042-.31-.13-.414-.382-.18-.434-.207-.442-.508-.14-.175.175-.266.403-.203.506.072.116-.028.11-.262-.015a2 2 0 0 0-.782-.202c-.32 0-.36-.053-.195-.252.17-.204.113-.236-.3-.17-.364.059-.436.031-.254-.096.332-.234.103-.588-.38-.588-.317 0-.342.046-.15.276.187.227.175.277-.07.277-.165 0-.3-.07-.3-.154 0-.219-1.27-.58-1.385-.394-.053.086-.257.143-.453.129-.196-.015-.32-.064-.276-.109.045-.044-.062-.19-.238-.324-.299-.226-.295-.244.049-.268.203-.015-.002-.1-.455-.188-.82-.16-2.033.092-2.033.423 0 .081-.122.147-.27.147s-.573.145-.942.32c-.643.307-.653.326-.237.443.434.122.434.122.02.14-.263.012-.415.136-.417.341-.002.276-.029.283-.181.047-.106-.164-.18-.188-.182-.059q-.005.217-.767.142c-.895-.09-1.084-.21-.598-.383.192-.068.68-.267 1.086-.442a24 24 0 0 1 1.474-.571c.406-.139.779-.3.83-.358s.423-.233.829-.388c.571-.218 1.048-.25 2.12-.137 1.438.151 3.545.194 3.225.065-.186-.074-2.385-.431-5.617-.911-1.703-.254-1.775-.25-2.948.176L49.83-2.29c-1.557.56-2.863 1.052-2.903 1.092-.095.095 7.598 1.35 10.894 1.777 2.6.336 3.643.426 2.995.256M58.171-1.28c-.052-.084.076-.153.284-.153.209 0 .38.069.38.153 0 .085-.128.154-.285.154s-.327-.07-.38-.154m1.796-.133c-.154-.098-.179-.203-.065-.273.101-.062.232.01.29.162.122.318.11.323-.225.11m-3.058-.957c.057-.093.445-.17.862-.17.416 0 .706.052.643.114-.187.187-1.62.24-1.505.056M107.26-.454c-.176-.046-.508-.048-.737-.004-.23.044-.085.082.32.084.406.002.593-.034.417-.08m19.454-1.82c.835-.433 1.383-.61 1.635-.53q.38.12.254-.084c-.07-.112-.295-.204-.502-.204-.43 0-3.25 1.495-3.881 2.057-.316.281-.214.254.408-.107a62 62 0 0 1 2.086-1.132m-32.244.105c.692-.404 1.51-.948 1.82-1.208.309-.26.979-.684 1.489-.942 1.227-.623 2.89-1.734 2.89-1.932 0-.087-.544-.158-1.21-.158-1.211 0-6.686-.402-10.097-.741-2.215-.22-2.7-.226-2.7-.029 0 .084.27.15.6.146 1.309-.014 4.939.333 5.943.57.203.047 1.24.123 2.304.168 2.91.124 3.098.17 2.993.722-.093.484-.624.926-1.71 1.425-.553.253-1.457.301-5.853.31-2.86.005-5.302.03-5.429.055-.133.027-.21-.108-.182-.323.026-.202-.194.088-.489.645l-.536 1.014.673.128c1.083.205 1.487.148.775-.109-1.019-.368-.412-.487 2.395-.468 2.76.018 3.124.07 3.124.446 0 .128.27.3.6.382l.598.15-.737.09-.737.092.737.125c1.304.221 1.46.19 2.739-.558m-33.647-.276c-.03-.025-.365-.101-.745-.17-.471-.085-.691-.058-.691.087 0 .117.11.17.247.118a.63.63 0 0 1 .49.055c.205.127.858.042.699-.09m59.789-44.832c.03-24.81-68.986-11.355-69.011-10.874-.08 1.5-.164 1.658 2.84-5.368l1.842-4.308-.199-1.144c-2.856-16.403 13.851-9.134 8.895 1.59-.488 1.055-.868 1.27-2.518 1.419l-1.293.117-.896 2.027a197 197 0 0 0-1.8 4.239 162 162 0 0 1-1.643 3.868c-.522 1.17-.675 1.69-.52 1.77.122.063 1.258.343 2.525.623s2.677.621 3.133.759c.456.137 1.575.42 2.488.629.912.208 1.796.421 1.964.472.238.073.39-.163.693-1.072.378-1.138 2.011-3.94 3.361-5.768 1.693-2.293 4.85-4.793 8.071-6.393 1.679-.833 2.012-1.058 1.576-1.061-.53-.005-.579-.077-1.192-1.772-.352-.972-.8-1.946-.996-2.164-.268-.298-.33-.317-.245-.08.062.174.034.366-.063.426s-.176.04-.176-.045-.338-.153-.75-.153-.661.03-.553.066.197.128.197.204c0 .154-.554.145-.833-.014-.1-.057-.465.015-.813.161-.506.212-.58.303-.369.453.212.15.2.166-.06.082-.302-.097-1.093.156-1.519.487-1.007.781-1.093.894-.823 1.08.2.138.156.154-.172.06-.354-.1-.42-.067-.332.163.076.2.028.257-.157.186-.318-.122-.336.016-.068.516.183.344.167.355-.23.15-.342-.176-.385-.174-.213.008.118.126.172.343.119.482-.054.139.416.97 1.044 1.847.627.878 1.17 1.687 1.207 1.799.063.193-.976 1.15-1.094 1.008a283 283 0 0 1-2.36-3.191c-.467-.685-3.46 2.475-4.4 4.644-.263.607-.532.79-.544.369-.004-.127-.174.124-.377.558s-.44.747-.524.694c-.201-.124-.42.98-.249 1.255.073.116.15.322.17.458.058.389.249.495.249.14 0-.291.027-.294.288-.033.292.292.198.754-.114.56-.093-.057-.12.025-.06.182.06.158.189.286.285.286.097 0 .124-.083.062-.184-.193-.311.072-.205.463.187l.371.371-.732-.117c-.565-.09-.885-.027-1.396.274-.774.457-.955.492-.653.129.178-.215.15-.244-.16-.164-.207.055-.336.166-.286.247s-.15.057-.444-.054c-.32-.121-.498-.3-.443-.444.093-.241 1.03-.566 1.898-.657.344-.036.446-.142.405-.417-.273-1.807-.254-2.068.248-3.328 1.333-3.346 3.555-5.98 5.045-5.98.244 0 .846-.482 1.609-1.291 1.59-1.686 3.278-2.79 5.225-3.42 5.733-2.292 2.927-6.302 5.015 2.192l.422 1.81 1.013-.152c2.058-.309 5.677-.17 7.464.285 2.913.743 6.118 2.542 8.323 4.672.42.407.846.69.945.629.258-.16.828-1.417.7-1.545-.06-.059-.108-.006-.108.118 0 .125-.096.167-.213.095-.128-.08-.162-.051-.087.072.198.319-.586.665-.905.4-.218-.181-.132-.4.534-1.35a40 40 0 0 0 1.214-1.832c.392-.654.4-.722.115-1.037-.284-.313-.283-.383.013-1.005.176-.367.377-.667.448-.667.303 0 .724.966.724 1.66v.752l.623-.117c.75-.14 2.004.394 1.57.67-.142.089-.175.165-.073.168.21.006-.292.361-.518.365-.082.002-.098-.079-.037-.179.065-.104-.009-.135-.173-.072-.157.06-.286.018-.286-.095 0-.363-.534-.215-.76.211-.121.228-.629.913-1.128 1.522-.5.609-1.02 1.372-1.157 1.696-.242.576-.225.618.68 1.75.509.637 1.312 1.76 1.784 2.493.808 1.256 1.134 1.587 1.134 1.15 0-.104.42-1.107.931-2.229.513-1.121 1.144-2.633 1.403-3.358s.68-1.775.933-2.333c.254-.557.76-1.677 1.126-2.488l.663-1.474c.031-26.344 12.834-7.233 9.26-.34-.53 1.023-.788 1.17-2.061 1.17-.645 0-1.374.075-1.62.169-.494.188-.918 1.12-3.358 7.386a303 303 0 0 1-3.16 7.7c-1.597 3.729-1.747 4.179-1.633 4.884.069.428.18 3.418.249 6.644l.124 5.866 2.257.083c1.433.052 2.258.015 2.258-.101 0-.101.113-.14.25-.088.266.102.595-.542.75-1.466.138-.82.311-.83.205-.013-.084.643-.072.674.105.266.11-.254.237-.955.282-1.56.045-.603.12-1.135.167-1.182.19-.19.06 2.174-.175 3.173-.29 1.232-.582 1.653-.852 1.226-.095-.151-.173-.192-.173-.09 0 .397.367.723 1.13 1.001 1.278.466 1.482 1.083 1.585 4.784.132 4.743-.27 6.006-2.067 6.494-.706.192-2.756.132-4.939-.145l-.875-.11v5.708l2.441.13c2.036.108 2.603.205 3.407.583 1.553.73 1.599.897 1.608 5.882.006 3.2-.055 4.386-.246 4.84q-.255.601-.461.44c-.114-.089-.386-.146-.605-.127-.396.035-.397.027-.301-3.112.111-3.617-.106-5.693-.652-6.239-.343-.343-2.392-.69-4.224-.715-.33-.005-.599-.08-.599-.168s.116-.116.258-.061c.142.054.313.01.38-.098.067-.11-.014-.197-.183-.197s-.348-.166-.401-.369c-.296-1.129-.397.238-.415 5.595l-.02 5.964 2.633.213c7.596.616 8.634.687 10.687.728l1.605.032zm-9.99 7.515c0-.301-.175-1.343-.39-2.315-.213-.971-.35-1.805-.302-1.852.198-.198.658.17 1.011.807.425.766.759 2.368.455 2.18-.112-.07-.238.255-.314.806-.137 1-.46 1.262-.46.374m.935-.297c.01-.215.053-.259.112-.111.053.133.047.292-.015.353-.06.061-.104-.048-.096-.242m-4.857-3.785a.423.423 0 0 0-.291-.728c-.36-.015.88-.49 1.864-.713.399-.09.735-.087.794.008.097.157-.183.246-.55.176-.093-.017-.07.09.054.237.175.212.172.29-.015.365-.182.073-.184.099-.008.11.57.036.144.37-.7.552-1.215.26-1.415.26-1.148-.007zm1.438-.68c-.056-.056-.205 0-.33.126-.18.182-.16.204.103.104.182-.07.284-.173.227-.23m1.69-6.163a68 68 0 0 0-.585-2.273c-.09-.279-.043-.384.168-.384.16 0 .28.09.268.2-.054.472.034.844.2.844.098 0 .133-.145.078-.322-.08-.255-.053-.247.128.038.227.357.23.357.38 0 .15-.352.152-.352.098.008-.03.203-.154.348-.275.323-.142-.03-.212.198-.198.645.022.687.023.688.163.138.094-.373.137-.027.132 1.06-.005.886-.028 1.612-.052 1.612s-.251-.85-.506-1.889m1.007-.691c0-.254.042-.357.093-.23a.7.7 0 0 1 0 .46c-.051.127-.093.023-.093-.23M91.245-65.473c-.049-.048-.29-.122-.538-.163-.247-.042-.426-.176-.397-.3.029-.122.34-1.355.69-2.737-10.912-8.888 1.883-7.952 7.683.53-.081.334.355.76.658.644.149-.057.382-.011.518.102.208.172.207.248-.007.46-.148.15-.21.43-.147.674.106.409.095.407-.523-.082-1.488-1.179-4.255-2.59-5.515-2.812l-.645-.114-.49 1.252a39 39 0 0 0-.705 1.943c-.201.644-.369.817-.582.603m7.767-1.755a.185.185 0 0 0-.185-.184.185.185 0 0 0-.184.184c0 .102.083.185.184.185a.185.185 0 0 0 .185-.185m.737 0c0-.101-.037-.184-.081-.184s-.133.083-.196.184c-.062.102-.026.185.082.185.107 0 .195-.083.195-.185m-1.29-.94c0-.266-.32-.19-.432.102q-.103.267.165.164c.147-.056.267-.176.267-.267M63.58-2.852a1.5 1.5 0 0 0-.645 0c-.177.047-.032.085.323.085s.5-.038.322-.085m14.972-.932c.25-.482.848-1.56 1.327-2.396.697-1.218.808-1.521.556-1.523-.408-.003-9.85-.498-12.477-.654l-2.028-.12-2.598 1.108c-1.43.61-3.026 1.26-3.548 1.445s-.95.4-.95.478.403.141.895.141 1.425.04 2.074.09c.698.053.991.03.719-.054-.41-.128-.316-.197.858-.632 1.382-.513 4.23-1.127 4.488-.969.082.051 2.77.1 5.971.107 3.28.008 5.821.086 5.821.178 0 .338-.807 1.812-.945 1.726-.08-.049-.1-.231-.046-.405.08-.26.058-.255-.122.027-.174.273-.167.377.03.5.2.123.204.2.022.383-.182.182-.229.18-.229-.013 0-.133-.158-.045-.352.194-.194.24-.318.47-.275.514.043.043.203-.082.356-.277.257-.33.262-.32.067.137-.21.493-.632.526-.948.074q-.138-.2-.32.079c-.14.214-.181.22-.184.026-.002-.177-.142-.215-.479-.13-.266.066-.43.046-.373-.047.056-.091-.102-.143-.35-.116-.608.067-1.216-.105-1.091-.307.055-.09-.075-.163-.29-.163s-.339.083-.276.184c.063.102-.062.184-.276.184s-.352-.062-.305-.138c.078-.126-.507-.218-1.308-.204-.177.003-.903.007-1.613.01-1.236.003-1.256.01-.476.163.448.089 2.23.334 3.963.547 1.731.212 3.355.456 3.609.542.253.087.502.164.553.172.05.008.298-.38.55-.861m45.808-.152c.714-.365 1.462-.802 1.662-.97.362-.304.363-.585.21-38.814-.086-21.179-3.376 40.442-3.262 40.445.051.002.676-.296 1.39-.66M79.178-6.143c.063-.164.032-.238-.073-.173-.1.062-.182.19-.182.286 0 .265.132.207.255-.113M57.03-7.52c.536-.206 1.14-.451 1.343-.546.203-.094 1.488-.598 2.857-1.12 3.176-1.211 3.433-1.35 3.579-1.93.066-.264.11-1.631.096-3.039-.02-2.02-.082-2.607-.299-2.787-.42-.349-4.323-.247-4.595.12-.124.168-.24 1.648-.296 3.782-.05 1.929-.124 3.538-.164 3.577-.04.038-.238.098-.44.133-.204.035-.427.144-.498.243-.32.448-.429-.362-.485-3.636-.069-3.98.078-4.862.93-5.579.519-.437.646-.455 3.107-.455h2.566v-4.354l-.875-.206a10.7 10.7 0 0 0-1.89-.222c-1.161-.018-2.804-.444-3.103-.804-.468-.565-.781-2.783-.82-5.808-.045-3.61.087-4.134 1.132-4.474.37-.12.745-.342.833-.492.135-.23.52-.254 2.416-.146l2.256.128.118-.588c.065-.324.118-2.351.118-4.505v-3.917l-1.52.43c-.837.236-2.789.891-4.338 1.456-4.253 1.55-4.372 1.568-5.9.863-.696-.32-1.341-.583-1.434-.583-.205 0-.132 34.115.073 34.32.123.123 2.437.423 3.759.488.275.013.938-.144 1.474-.35m44.238-1.407a.7.7 0 0 0-.46 0c-.127.05-.023.093.23.093s.357-.042.23-.093m-12.526-1.115c-.167-.06-.137-.312.12-.988.19-.5.313-.908.274-.908-.075 0-.999 1.77-.999 1.915 0 .121.627.245.737.145.051-.046-.009-.12-.132-.164M69.35-10.97c.006-.076.042-6.358.08-13.96.06-12.247.267-19.556.583-20.62.088-.295.032-.33-.36-.232-.256.064-.834.275-1.286.469l-.821.352-.117 1.814c-.064.998-.136 8.615-.16 16.927l-.043 15.112.734.112c1.123.172 1.378.176 1.39.026m15.198-4.802c-.116-.116-.07-.187-.684 1.07-.56 1.146-1.122 2.427-1.147 2.611a.6.6 0 0 1-.155.261c-.076.076-.138.27-.138.43s.5-.736 1.11-1.992c.611-1.255 1.068-2.327 1.014-2.38m-35.343-9.794.048-14.084-3.868 7.729C39.134-17.23 29.08-13.323 47.224-11.578c.76.081 1.507.136 1.659.121.242-.022.282-1.748.323-14.11m44.912 3.86.771-1.796c.142-.33.21-.599.151-.599-.145 0-1.742 3.39-1.742 3.698q0 .612.82-1.302M44.252-41.697l-.548-.347c-.302-.191-.672-.586-.823-.878-11.804-8.705-20.363 44.611 1.371 1.225m58.756 20.326c-.059-.147-.103-.103-.112.111-.008.195.036.303.097.242s.068-.22.015-.353m3.091-.347c-.058-.094.051-.171.243-.171.453 0 .635-.19.424-.444-.12-.144.473-.184 2.089-.138l2.256.063.322-.493c.583-.889.737-2.404.522-5.122-.108-1.373-.286-2.663-.395-2.866-.288-.54-1.12-.739-3.656-.879l-2.258-.124.002 4.31c.002 4.484.12 6.307.396 6.136.089-.055.114-.177.056-.272zm.561.197c.063-.101.026-.184-.081-.184-.108 0-.195.083-.195.184 0 .102.036.184.08.184.046 0 .133-.082.196-.184M88.74-24.207c.486-1.153.575-1.527.4-1.69-.123-.116-.281-.153-.351-.083-.125.124.076-.905.205-1.055.037-.043.072.123.08.368.011.41.024.416.16.077.082-.203.09-.493.02-.645-.071-.152-.146-.556-.166-.897s-.159-.795-.308-1.008c-.263-.376-.273-.377-.284-.025-.01.328-.028.323-.178-.051-.092-.229-.12-.56-.063-.738.087-.272.072-.279-.096-.046-.188.263-.311 7.54-.124 7.353.044-.044.362-.746.705-1.56m-.042-.909c0-.101.08-.308.178-.46.099-.152.179-.194.179-.093s-.08.31-.179.461-.178.194-.178.092m7.282-.975c-.103-.103-.473.798-.462 1.126.004.12.13-.064.28-.409s.231-.667.182-.717m-31.247-3.263v-4.331h-.726c-.4 0-.786-.096-.858-.213s-.052-.164.044-.105c.097.06.296.033.443-.06.276-.175.266-.18-.607-.25-.127-.01-.232.107-.233.259-.001.222-.288.276-1.46.276h-1.459l-.162.553c-.182.621.001 6.767.22 7.36.113.308.398.42 1.501.587.75.114 1.798.218 2.33.23l.967.025zm25.083 2.589c.091-.096.166-.257.166-.358s-.122-.022-.27.175c-.15.197-.264.524-.256.727l.016.368.089-.368c.048-.203.163-.448.255-.544m-.021-1.08c.002-.082-.08-.098-.181-.035-.102.063-.184.254-.182.425.002.269.028.274.181.036.099-.152.18-.344.182-.426m-7.05-.239c-.062-.06-.22-.067-.354-.014-.147.059-.103.102.112.111.194.008.303-.035.242-.097m1.116-.712c.297-.251.607-.396.688-.323s.092.037.025-.081c-.125-.219.376-1.335.709-1.58.116-.085.103-.136-.035-.138-.12-.002-.252-.273-.293-.602-.068-.545-.077-.532-.104.148-.038.966-.882 2.308-1.707 2.714-.507.25-.55.31-.225.313.22.002.644-.2.942-.451m1.833-1.982c-.039-.433-.071-.125-.072.686 0 .811.031 1.166.07.788s.041-1.04.002-1.474m-.436.686.12-.553-.262.459c-.144.252-.22.527-.167.611.126.205.168.134.31-.517m6.823-1.06c.177-.532.37-1.083.427-1.225.153-.382-1.259-.12-1.558.289-.293.401-.299 1.394-.01 1.683.464.463.813.235 1.14-.746m-9.44.479c.724-.655.152-2.091-.832-2.091-.857 0-1.45 1.198-.96 1.944.353.54 1.275.616 1.793.147m-3.745-1.322c.116-.681.109-.923-.025-.79-.105.106-.216.672-.246 1.259-.058 1.164.013 1.04.27-.469m9.948-.308c-.017-.567-.293.644-.293 1.29 0 .465.023.435.152-.184.083-.406.147-.904.14-1.106m23.392 1.152c-.025-.127.064-.208.198-.18s.19-.039.122-.147c-.086-.14-.2-.134-.382.018-.302.25-.343.539-.076.539.101 0 .163-.104.138-.23m-13.41-.656c-.003-.269-.028-.274-.182-.036-.233.361-.233.605 0 .461.101-.062.183-.254.182-.425m7.133-1.095c-.047-.178-.085-.032-.085.322 0 .355.038.5.085.323a1.5 1.5 0 0 0 0-.645m5.455-.968c.053-.203.021-.322-.07-.266-.092.057-.168.223-.168.37 0 .38.126.326.238-.104m-10.851-1.382c-.072-.284-.037-.46.088-.46.113 0 .205-.128.205-.285s.171-.62.381-1.031.341-.788.292-.837c-.049-.05-.375.513-.725 1.25-.48 1.01-.586 1.397-.43 1.574.293.336.319.307.189-.211m-12.248-8.141c0-4.878.065-7.563.188-7.686.104-.103.188-.276.186-.382-.001-.106-.083-.07-.181.083-.14.215-.18.164-.182-.23-.001-.28.08-.507.182-.507s.184-.088.184-.195-.083-.144-.184-.082c-.114.07-.186-.26-.187-.864-.002-.538-.084-1.103-.183-1.255-.118-.182-.173 2.85-.16 8.815.017 8.234.06 9.799.27 9.799.038 0 .067-3.373.067-7.496m7.743 3.718c0-.102-.08-.06-.178.092-.099.152-.179.36-.179.46 0 .102.08.06.179-.091.098-.152.178-.36.178-.461m-279.758-.358c0-.045-.083-.132-.185-.195-.1-.063-.184-.026-.184.081 0 .108.083.195.184.195.102 0 .185-.036.185-.08m280.133-.309c0-.101-.083-.133-.185-.07-.101.062-.184.196-.184.298s.083.133.184.07c.102-.062.185-.197.185-.298m.254-.633c.063-.164.032-.238-.072-.173-.1.062-.182.19-.182.286 0 .265.132.206.254-.113m.664-1.522c-.002-.268-.027-.273-.181-.035-.234.361-.234.605 0 .46.101-.062.183-.253.181-.425M60-44.855c2.654-.872 5.84-1.95 7.08-2.396s2.339-.81 2.442-.81.187-.069.187-.154-.85-.34-1.889-.569a571 571 0 0 1-7.184-1.69c-2.912-.7-5.549-1.273-5.858-1.273-.395 0-.931.284-1.8.952-.68.524-1.847 1.235-2.593 1.581l-1.355.629.12.861c.314 2.246.082 1.968 2.73 3.273 1.317.65 2.597 1.182 2.845 1.182.247 0 2.621-.714 5.275-1.586m-13.375.564.653-.653-.112-1.605c-.202-2.888-.66-3.625-2.01-3.237l-.603.174v2.49c0 2.072.054 2.572.326 2.986.442.674.964.627 1.746-.155m-230.568.066c-.059-.147-.102-.103-.111.111-.008.195.035.303.097.242.06-.061.067-.22.014-.353m226.192-3.318c0-.33 0 .314 0 0m56.89.554c-.06-.148-.103-.104-.112.11-.008.195.036.304.097.243s.068-.22.015-.353m-276.757-1.144c0-.04-.13-.122-.286-.182-.164-.063-.238-.032-.174.072.108.175.46.26.46.11m80.969-12.168c-.443-.928-.904-.874-1.058.123-2.159 11.102-17.274 2.977-22.447.138-2.454 13.996 30.067 15.64 23.505-.26m-77.526 11.469c-.059-.147-.103-.104-.112.11-.008.195.036.304.097.243s.068-.22.015-.353M42.34-50.31l.645-.618c1.527-1.461 3.387-1.542 5.207-.226.24.174.405.182.645.03.291-.183.331-.716.414-5.527.05-2.929-20.007-16.226-19.903-12.881S42.34-50.31 42.34-50.31m29.094-1.268c.95-3.419 4.29-7.88 7.952-10.627l.55-.413-.764.26c-2.001.68-2.922 1.304-5.056 3.423-2.795 2.775-4.482 5.341-4.87 7.405-.114.608-.08.678.4.853.288.105.738.197 1 .205.43.013.507-.096.788-1.106m-249.33.568c-.183-.203-.247-.37-.141-.37.25 0 .428-1.144.214-1.372-.099-.105-.165.103-.165.518s-.074.647-.184.578c-.325-.2-.197.503.138.758.467.354.52.31.138-.112m52.564-2.166c-.129-2.418-.554-3.945-1.803-6.472-1.614-3.266-3.774-4.982-7.457-5.924-3.712-.95-7.214-.029-10.595 2.785-1.426 1.187-2.74 2.815-2.337 2.895.343.068 5.232-1.197 7.67-1.984.955-.309 1.984-.561 2.288-.561.833 0 1.935.746 3.164 2.142 2.692 3.058 8.715 9.1 9.07 9.1.058 0 .058-.891 0-1.981m-56.977 1.628c-.058-.092 0-.21.127-.262.14-.056.104-.099-.09-.107-.327-.015-.426.19-.2.415.179.18.284.15.163-.046m-.794-.66c.048-.254.016-.461-.07-.461-.088 0-.16.207-.16.46 0 .254.032.461.071.461s.11-.207.159-.46m.593-.065c-.103-.11-.454.168-.454.36 0 .099.116.073.258-.058.142-.13.23-.266.196-.302m1.252-.17c-.052-.136-.215-.201-.363-.145a1.6 1.6 0 0 1-.355.103c-.049 0-.048.065.002.145.159.258.819.163.717-.103zm58.373-9.072c-1.18-4.163-4.085-7.273-7.997-8.562-3.272-1.078-6.668-.623-8.972 1.202-.397.314-.722.64-.722.725s.935.108 2.077.052c4.27-.21 7.83 1.066 10.647 3.818 1.713 1.673 2.485 2.938 3.398 5.562.72 2.07.945 3.069 1.306 5.772.347 2.596 1.403-4.547.263-8.57m-53.519 9.002c.083-.135.05-.163-.09-.077-.12.075-.34.037-.488-.086-.166-.137-.269-.15-.269-.031 0 .175.271.356.588.392.07.008.187-.081.26-.198m-4.462-.258c.062-.164.032-.238-.073-.173-.1.062-.182.19-.182.286 0 .265.132.206.255-.113m234.462-1.11c.434-.319.83-1.036 1.693-3.058.62-1.453 2.264-5.295 3.654-8.539C63.98-77.23 68.04-88.4 54.856-60.005c-1.533 3.301-2.276 4.979-2.83 6.387l-.387.985.695-.416c.382-.228.95-.602 1.262-.831m-237.766.856c.058-.094.022-.224-.081-.287-.103-.064-.187.013-.187.171 0 .324.11.372.268.116m2.035-.013c.063-.101.026-.184-.081-.184s-.195.083-.195.184c0 .102.036.185.081.185s.133-.083.195-.185m101.16-6.867c-1.48-2.184-4.412-4.142-7.311-4.882-1.409-.36-1.875-.23-2.578.717-.325.437-.337.56-.123 1.198.3.893 10.011 2.967 10.011 2.967m-98.464 6.176c.23-.292.223-.299-.07-.07-.177.14-.322.285-.322.323 0 .152.151.054.392-.253m-3.03-.818c-.06-.147-.103-.103-.112.112-.008.194.036.303.097.242.061-.062.068-.22.014-.354m-1.72-1.353c-.145-.375-.232-.338-.2.085.015.196.09.317.165.27s.091-.206.034-.355m1.24.2c.093.057.17-.053.17-.245 0-.535-.458-.414-.484.127-.013.262.015.372.062.245.046-.127.16-.185.253-.127m1.504.017c.116.072.143.035.065-.09-.072-.118-.092-.214-.044-.214.049 0 .24-.057.426-.126.299-.112.308-.09.081.188-.225.277-.218.3.056.196.394-.152.329-1.087-.076-1.087-.152 0-.259.094-.238.209s-.123.355-.322.535-.355.418-.347.529c.008.115.055.102.108-.03.051-.127.182-.177.29-.11zm.416-.856c-.063-.102-.026-.185.081-.185.108 0 .196.083.196.185 0 .1-.037.184-.082.184-.044 0-.132-.083-.195-.184m88.012-5.705c-.144-.227-.31-.202-1.103.17-.514.24-.934.45-.934.466s.219.562.486 1.213c.373.907 1.804-1.448 1.55-1.849m-6.46 1.889c0-.406-.06-.423-1.47-.423-.807 0-2.107-.14-2.888-.312-1.363-.3-1.429-.299-1.618.024a9 9 0 0 1-.645.884c-.571.7-.859.657-3.976-.589-4.677-1.87-7.768-3.52-10.816-5.775-1.671-1.237-2.397-2.057-3.191-3.605l-.584-1.138-.242.733c-.238.72-.23.747.404 1.45 1.004 1.11 2.186 2.913 3.094 4.717l.83 1.648 2.211 1.36c4.116 2.53 18.89 1.258 18.89 1.026m-82.443 2.377c0-.218-.041-.212-.22.032-.12.165-.305.3-.41.3s-.235.118-.29.262c-.082.212-.005.206.41-.032.28-.161.51-.414.51-.562m9.092.596c0-.058-.114-.22-.254-.36-.32-.32-.539-.137-.241.202.226.257.495.343.495.158m-9.688-.795c.055-.09-.064-.207-.266-.26-.201-.052-.42-.007-.487.1-.07.115-.033.142.092.064.117-.072.213-.043.213.064 0 .237.308.259.448.032m9.601-.354c-.057-.057-.205 0-.33.126-.181.182-.16.203.103.103.182-.07.284-.172.227-.23m-1.287-.208c-.067-.108-.21-.196-.318-.196-.122 0-.108.105.037.28.253.305.479.237.28-.084m-9.376-.649c0-.148-.07-.225-.157-.171-.086.053-.109.173-.05.268.149.241.207.214.207-.097m1.535.084c0-.101-.087-.184-.195-.184-.107 0-.144.083-.081.184s.15.184.195.184.081-.083.081-.184m158.497-.46q121.801 124.35 0 0m-156.335.164c-.061-.06-.22-.067-.353-.014-.147.059-.103.102.111.111.194.008.303-.035.242-.097m12.03-.994a.185.185 0 0 0-.185-.184.185.185 0 0 0-.184.184c0 .101.083.184.184.184a.185.185 0 0 0 .184-.184m240.003-1.071a11 11 0 0 1-.565-.588c-.2-.23-.203-.2-.02.173.287.59.596.915.769.81.077-.047-.006-.225-.184-.395m26.377.232c.063-.164.032-.238-.072-.173-.1.062-.182.19-.182.286 0 .265.132.206.254-.113m-268.776-.082c-.198-.128-.209-.18-.038-.182.34-.004-.288-.813-.93-1.196-.465-.277-.507-.277-.507-.004 0 .163.073.253.161.198.161-.1 1.13.689 1.13.92 0 .067-.208-.014-.462-.18-.253-.166-.46-.237-.46-.156 0 .17.929.773 1.198.776.101.001.06-.078-.093-.176m149.537-.553c.074 0 .09.07.037.157-.054.087.12.116.387.065.456-.087.464-.107.143-.342-.187-.137-.395-.249-.462-.249-.182 0-.914.667-.914.833 0 .08.152.008.337-.16.185-.167.398-.304.472-.304m93.459.227c-.102-.074-.3-.359-.44-.632-.141-.274-.381-.545-.533-.603-.24-.092-.242-.062-.02.22.14.18.339.388.44.462.102.075.112.137.024.139-.089.001-.058.127.069.279.126.152.322.275.437.273.133-.001.141-.051.023-.138m-244.53-.446c-.058-.147-.102-.104-.11.111-.009.194.035.303.096.242s.068-.22.015-.353m-4.825-.15a.43.43 0 0 0-.333-.181c-.132.001-.11.074.057.181.354.229.418.229.276 0m69.45-4.746c.173-2.711.36-5.682.417-6.6l.104-1.672-1.456-.846c-2.78-1.615-6.601-5.002-7.439-6.593-.41-.778-.44-1.06-.501-4.561-.036-2.053-.126-3.732-.2-3.732s-.524.132-.999.294c-.674.23-.887.4-.97.783-.726 3.291-3.127 5.59-6.572 6.29-1.278.26-1.27.218-.587 3.266.612 2.728 1.874 6.397 3.032 8.817.82 1.714 1.043 2.018 2.07 2.835 1.226.975 4.058 2.72 6.036 3.72 1.187.599 6.447 2.914 6.646 2.924.057.003.245-2.213.419-4.925m-69.973 3.594c-.05-.127-.093-.023-.093.23 0 .254.042.358.093.23a.7.7 0 0 0 0-.46m.685.092c-.173-.723-.254-.748-.254-.076 0 .32.085.583.188.583.111 0 .138-.206.066-.507m4.538.323c0-.102-.088-.184-.195-.184s-.144.082-.082.184c.063.101.15.184.196.184.044 0 .08-.083.08-.184m75.346-.525c2.166-.589 3.193-1.19 4.592-2.688 2.036-2.18 3.132-4.67 4.02-9.135.296-1.492.563-2.383.758-2.529.165-.123.872-.443 1.571-.71 1.575-.602 1.953-1.076 1.654-2.073-.113-.378-.719-1.598-1.346-2.71a767 767 0 0 1-1.655-2.949c-.91-1.637-1.06-2.609-.895-5.79.128-2.473.01-5.586-.222-5.817-.293-.293-8.813.757-12.086 1.489-3.568.798-12.719 3.71-13.283 4.227-.181.167-.27 1.214-.342 4.074l-.098 3.85.603.895c.724 1.075 3.198 3.274 5.025 4.468l2.272 1.489c1.644 1.08 1.63.988 1.258 7.828-.176 3.236-.267 5.935-.203 6 .064.064.635.223 1.268.355 1.636.338 5.387.194 7.109-.274m1.596-7.731c-2.18-.754-4.513-2.67-4.513-3.704 0-.555.541-1.125 1.068-1.125.137 0 .725.453 1.305 1.007 1.483 1.415 2.827 1.993 4.857 2.092.997.049 1.683.168 1.804.315.312.376.002 1.181-.569 1.476-.712.368-2.803.336-3.952-.061m-1.794-12.122c-1.097-.595-1.674-2.827-1.175-4.544.416-1.432 1.683-2.522 2.544-2.19 1.536.594 2.145 3.412 1.182 5.479-.678 1.457-1.465 1.844-2.55 1.255m2.35-8.04c-1.927-1.216-3.615-1.523-5.804-1.053-1.116.24-1.477.043-1.477-.8 0-.782 1.023-1.71 2.149-1.95 2.303-.491 6.778 1.177 7.561 2.82.278.582.277.662-.01 1.1-.43.658-1.256.618-2.42-.117m-82.715 26.993c-.047-.18-.088-.077-.092.227s.035.45.085.326c.05-.125.054-.374.007-.553zm-6.55-.477c-.115-.138-.148-.32-.073-.402s.035-.093-.09-.02c-.176.1-.178.207-.007.481.121.193.256.316.3.272s-.015-.192-.13-.33m6.606-1.362c-.201-.314-.206-.313-.106.008.059.185.113.434.121.552.01.156.04.154.105-.008.05-.122-.004-.371-.12-.552m-6.486.034c-.056-.057-.16.045-.229.227-.1.263-.078.284.104.103.126-.125.182-.274.125-.33m298.322-2.115c.063-.101.005-.19-.127-.199-.186-.01-.188-.036-.011-.107.127-.051.23-.236.23-.411s.122-.48.27-.676c.805-3.659-.491.116-.82 1.44-.003.201.325.168.458-.047m-298.532-.268c0-.148-.07-.225-.156-.172s-.11.174-.05.269c.148.24.206.214.206-.097m299.085.084c.063-.101.026-.184-.081-.184-.108 0-.195.083-.195.184s.036.184.08.184c.046 0 .133-.083.196-.184m-293.703-.727c-.138-.31-.317-.563-.4-.563s-.106.07-.053.158c.054.086.185.388.293.67s.243.465.302.406-.005-.36-.142-.67m293.792-.24c-.002-.324-.04-.357-.172-.148-.093.148-.128.334-.078.415.16.259.253.159.25-.268m-294.597-.139c.063-.101.026-.184-.081-.184-.108 0-.195.083-.195.184s.036.184.08.184c.046 0 .133-.083.196-.184m52.464-2.594c.665-1.348.764-1.852.533-2.71-.194-.717-.209-.728-1.238-.834-.573-.059-1.092-.176-1.152-.261s-.607-.254-1.215-.377-1.594-.478-2.19-.79c-.597-.312-1.147-.499-1.223-.417-.238.26-1.644 4.535-1.544 4.696.052.085.653.154 1.335.154 1.439 0 2.88.34 4.608 1.088.674.292 1.308.513 1.41.49.101-.022.406-.49.676-1.04m-.215-5.139c0-.097-.201-.989-.446-1.981a54 54 0 0 1-.668-3.105l-.223-1.3-1.128-.585c-1.52-.788-2.34-1.495-3.147-2.71-1.366-2.057-1.796-4.253-1.3-6.628.857-4.097 3.617-6.367 7.743-6.367h1.53l1.261-1.314c4.493-4.68 13.023-11.546 19.713-15.869 1.026-.663 1.922-1.296 1.99-1.407.282-.455-3.092-2.225-5.79-3.037-2.91-.875-4.617-1.097-7.556-.982-4.867.19-9.444 1.743-13.454 4.564-3.052 2.148-6.365 6.103-7.955 9.495-1.148 2.45-2.145 5.625-2.478 7.892-.445 3.025-.273 8.334.356 10.979.897 3.772 2.597 7.687 4.248 9.783.728.924.931 1.063 1.984 1.357.645.18 1.4.444 1.676.586 1.167.6 3.643 1.027 3.643.629m3.002-8.855c1.347-.504 2.403-1.458 3.015-2.722.438-.907.511-1.287.517-2.713.007-1.482-.053-1.787-.562-2.857-.649-1.365-1.634-2.406-2.84-3-1.15-.568-3.409-.573-4.634-.01-1.148.526-2.3 1.713-2.894 2.983-.415.884-.488 1.29-.488 2.7 0 1.406.073 1.812.481 2.672.6 1.261 1.635 2.312 2.836 2.879 1.21.57 3.148.6 4.569.068m-4.03-2.006c-1.625-.739-2.703-2.904-2.294-4.61.502-2.092 2.776-3.51 4.769-2.973 3.088.831 3.78 5.876 1.026 7.489-.939.55-2.408.59-3.5.094m2.606-1.395c1.125-.47 1.714-2.401 1.097-3.594-.622-1.203-1.797-1.592-3.128-1.036-.705.295-1.11.836-1.298 1.735-.283 1.356.283 2.461 1.481 2.888.932.332 1.068.332 1.848.007m10.337-4.356c6.341-2.672 14.337-5.012 19.468-5.697 3.698-.493 8.747-.799 11.352-.688l2.098.09-.1-2.05c-.203-4.121-1.565-8.891-3.825-13.394-.898-1.788-2.789-4.615-3.778-5.647-.93-.97-.674-1.034-4.443 1.104-4.941 2.804-8.163 4.872-13.428 8.616-3.581 2.547-9.703 7.622-13.528 11.214l-1.18 1.108.924.73c1.174.928 2.342 2.672 2.816 4.209.204.66.37 1.314.37 1.456s.034.257.075.257 1.472-.589 3.18-1.308m9.373-6.755c-.25-.622-1.393-4.753-1.503-5.428-.17-1.05.047-1.55.976-2.26 1.038-.792 1.766-.855 2.2-.19.91 1.388 2.557 7.083 2.163 7.477-.28.28-2.068.719-2.943.721-.556.002-.799-.085-.893-.32m7.684-1.818c-.102-.191-.407-1.177-.677-2.19a155 155 0 0 0-1.237-4.29c-.641-2.102-.716-2.517-.532-2.96.237-.574 1.806-1.615 2.703-1.794.537-.107.587-.066.947.779 1.063 2.492 2.813 8.462 2.813 9.593 0 .65-.742.998-2.37 1.11-1.302.088-1.481.062-1.647-.248m8.01-.762c-.045-.076-.345-1.134-.666-2.35-.32-1.216-1.166-3.946-1.879-6.066-1.066-3.172-1.261-3.93-1.102-4.279.219-.48 2.177-1.542 2.845-1.542.643 0 .897.385 2.067 3.133 1.433 3.365 1.863 4.676 2.397 7.303.536 2.64.58 3.667.162 3.827-.42.161-3.725.138-3.824-.026m4.853 5.667c.216-.14.165-.18-.23-.182-.279-.001-.507.08-.507.182 0 .233.377.233.737 0m-66.773-18.89c2.91-.867 5.129-3.53 6.26-7.51.632-2.228 1.245-3.456 1.725-3.456.201 0 .367.103.37.23.008.613.57 4.13.761 4.767l.217.723.418-.392c.251-.237.686-1.21 1.09-2.446.8-2.438 1.858-4.764 2.703-5.943.72-1.003 2.423-2.284 3.038-2.284.538 0 .544.234.054 2.106-.207.791-.352 1.511-.323 1.6.03.088.428-.088.884-.392 1.107-.738 2.573-1.272 3.855-1.406 2.09-.219 4.934.604 6.417 1.856l.597.503.548-.39c.656-.467.617-.627-.665-2.783-2.315-3.892-5.085-6.095-9.526-7.577-1.407-.47-2.072-.578-4.01-.657-2.58-.105-4.134.095-6.122.79-1.895.662-3.506 1.635-4.654 2.81-1.994 2.044-2.798 3.623-3.849 7.563-1.013 3.796-1.384 4.734-2.617 6.602-1.082 1.64-3.655 3.013-5.642 3.013h-.756l.542.577c1.054 1.123 2.938 2.104 4.688 2.44.772.149 2.985-.041 3.997-.344m54.061-4.242c.707-.356 1.286-.678 1.286-.715 0-.15-2.423-1.634-3.68-2.253-2.869-1.414-5.227-1.973-9.59-2.277-1.47-.102-2.856-.186-3.081-.187-.315-.001-.521-.239-.895-1.028-.637-1.346-.969-1.475-3.13-1.214-3.04.369-4.866 1.139-6.448 2.721-.5.5-.636.784-.634 1.322.005 1.158.11 1.198 1.85.695 4.083-1.177 9.032-1.444 12.642-.682 3.403.718 6.883 2.109 9.003 3.598.507.356 1.027.652 1.157.657.129.006.813-.28 1.52-.637m-16.805-11.577c1.916-3.125 2.794-5.94 2.794-8.96 0-3.086-.56-5.018-2.045-7.06-1.123-1.544-3.956-3.78-4.324-3.414-.064.065.099.849.362 1.743.3 1.023.478 2.074.478 2.834 0 .961.136 1.545.666 2.857 1.183 2.928 1.546 4.747 1.54 7.707-.005 1.596-.112 3.066-.278 3.801l-.39 1.733c-.185.82.138.485 1.197-1.24m-2.938-.907c-.017-.56-.027-.569-.155-.138-.075.253-.104.523-.063.599.155.289.236.117.218-.46m.203-2.877c0-3-.527-5.5-1.619-7.674-.383-.763-.484-.86-.588-.565-.09.254-.166.291-.265.13-.077-.124-.043-.343.076-.486.286-.344.049-.701-.39-.586-.19.05-.347.031-.347-.041s-.131-.293-.292-.49c-.229-.281-.27-.292-.196-.05.053.169-.008.347-.134.395-.161.062-.207-.072-.152-.445.049-.33-.004-.534-.138-.534-.118 0-.173.069-.12.153.051.085-.019.154-.157.154q-.252.001-.185-.522c.047-.372-.014-.522-.212-.522-.153 0-.228.082-.166.182.067.109-.017.132-.21.058-.229-.087-.252-.147-.081-.204.196-.066.195-.114-.01-.255-.173-.12-.108-.139.21-.06.428.105.437.094.127-.155-.193-.155-.256-.316-.15-.381a.22.22 0 0 1 .298.074.43.43 0 0 0 .329.188c.336 0-1.694-1.987-2.815-2.756-1.713-1.175-5.059-2.715-5.545-2.553-.107.036.163.249.601.473 1.458.746.297.425-1.309-.362-1.499-.734-1.681-.778-3.546-.849-4.54-.173-8.977 1.61-12.31 4.95-1.618 1.62-2.466 2.855-3.13 4.563l-.382.978.662-.504c.363-.278 1.338-.864 2.166-1.304.829-.439 1.278-.747 1-.684-.33.075-.507.04-.507-.1 0-.118.076-.168.169-.11.093.057.3-.026.46-.186.159-.16.367-.242.462-.183.095.06.233.01.307-.109.073-.118.054-.167-.043-.107-.096.06-.295.032-.443-.06-.197-.126-.123-.172.286-.176.816-.008 1.11-.244.71-.569-.176-.143-.262-.162-.19-.042.178.296-.181.493-.365.2-.387-.62-.124-.964 1.427-1.863.794-.46 1.51-.7.906-.303-.246.161-.246.202 0 .363q.276.181.046.184c-.127.002-.23.125-.23.274 0 .175-.107.23-.302.155-.208-.08-.274-.036-.211.144.053.153.285.239.564.209.26-.028.53.04.598.15.19.307-.054.442-.352.194-.205-.17-.296-.17-.402.002-.084.136-.06.174.063.098.11-.068.252-.039.316.064s.007.189-.126.19c-.18.002-.174.045.026.172.161.102.392.1.587-.003.436-.234.572-.216.433.058-.064.127-.007.098.128-.064.16-.194.37-.25.613-.162.202.073.568.098.813.055.367-.064.407-.032.227.185-.178.214-.14.266.2.278.618.023 3.06.73 2.63.762-.258.019-.18.093.259.247 1.349.473 1.19 1.113-.469 1.898-.538.255-1.155.687-1.37.96l-.391.495.985.045c3.547.16 6.284.794 8.686 2.01.68.344.953.4 1.198.246.283-.178.277-.19-.052-.109-.205.05-.818-.146-1.382-.443-.863-.454-.94-.535-.522-.542.27-.005.533-.113.585-.24.072-.177.134-.17.273.027.185.265.868.143.702-.125-.05-.081.069-.16.265-.174.326-.025.445.159.37.572-.016.088.096.112.249.054.152-.059.327-.026.388.072.061.099.188.132.283.073.094-.058.171-.011.171.104 0 .138-.206.17-.599.095-.505-.097-.544-.08-.254.1.277.171.295.244.093.369s-.181.207.107.417c.276.202.436.214.696.054.264-.164.375-.15.513.067.241.38.226.602-.031.443-.135-.083-.163-.05-.077.09.078.125.297.169.511.1.268-.084.351-.047.291.131-.12.36-.703.325-1.342-.08-.49-.31-.48-.288.091.206.354.306.668.533.696.504.029-.029.395.26.813.643.451.413.88.657 1.054.602q.295-.093.079.064c-.152.11.03.419.609 1.031.784.83 1.16 1.114.885.67-.082-.133-.006-.167.22-.097.19.06.464.033.609-.058.225-.141.204-.388-.144-1.688-.569-2.126-1.752-4.696-2.13-4.626-.162.03-.294-.037-.294-.15 0-.111.083-.151.185-.089.79.49-.962-2.123-2.324-3.464-.597-.587-1.874-1.583-2.837-2.211-1.803-1.178-2.222-1.75-1.198-1.634.903.1 3.156 1.074 4.326 1.869.6.407 1.158.75 1.24.76.08.01.687.624 1.345 1.363.66.738 1.298 1.314 1.42 1.28.136-.04.177.05.106.234-.082.214-.045.255.13.146q.24-.147.117.055c-.07.113.176.636.545 1.162s.944 1.545 1.276 2.264c.734 1.593 1.935 4.81 1.935 5.184 0 .15.064.272.142.272s.13-.583.118-1.295c-.023-1.276.138-1.77.376-1.15.104.27.146.277.298.044q.176-.27.128 1.526c-.027.988.014 1.797.09 1.797s.138-.984.138-2.187zm-6.412.048c-.13-.142-.156-.258-.057-.258.192 0 .469.35.36.455-.036.033-.172-.055-.303-.197m-7.754-5.399c-.212-.134-.212-.172 0-.243.138-.047.404-.045.59.003.263.068.283.122.092.243-.307.195-.37.195-.682-.003m4.03.093c0-.04.128-.122.286-.182.164-.063.238-.032.173.072-.108.175-.46.26-.46.11m1.75-1.586c.063-.102.197-.185.299-.185s.133.083.07.185c-.063.1-.197.184-.298.184-.102 0-.133-.083-.07-.184m-.36-.445c.196-.143.435-.212.53-.152.096.059.014.17-.182.247-.577.226-.73.184-.347-.095m-.653-.396c0-.158-.066-.246-.148-.196-.08.05-.247-.07-.37-.266-.177-.283-.175-.348.009-.31.336.067.887.71.77.9-.151.244-.261.191-.261-.128zm.033-.692c-.326-.336-.535-.669-.465-.739.169-.168.985.604.985.932 0 .146.09.2.212.124.132-.081.163-.05.082.081-.174.282-.138.3-.814-.398m1.866-2.05c-.175-.199-.148-.269.132-.342a.62.62 0 0 1 .588.2c.18.224.182.26.007.155-.126-.076-.23-.05-.23.057 0 .266-.23.234-.497-.07zm1.779-1.495c-.19-.228-.177-.256.074-.16.166.064.302.032.302-.072s-.103-.23-.23-.282c-.127-.05-.147-.098-.046-.104s.301.062.444.153c.222.14.218.207-.027.452-.255.256-.315.257-.517.013m-.712-1.384c-.341-.298-.538-.542-.438-.542.216 0 1.23.91 1.128 1.013-.038.038-.35-.174-.69-.471m-12.642-1.463c.063-.102.296-.179.518-.172.39.013.39.019.035.172-.507.218-.688.218-.553 0m1.198 0c-.222-.144-.193-.18.15-.182.236-.002.374.079.31.182-.136.221-.117.221-.46 0m-.875-.68c.177-.046.467-.046.645 0 .177.046.032.084-.323.084s-.5-.038-.322-.084m1.21 0c.132-.052.291-.046.352.015.062.062-.047.105-.242.097-.214-.009-.258-.052-.11-.111m12.75 16.426c0-.158-.083-.236-.184-.173-.101.062-.184.192-.184.287 0 .096.083.174.184.174s.184-.13.184-.288m-5.947-4.615c-.061-.062-.22-.068-.353-.015-.147.059-.104.102.11.111.195.008.304-.035.243-.096m7.975-5.97c0-.102-.037-.185-.082-.185-.044 0-.132.083-.195.184s-.026.184.081.184c.108 0 .196-.083.196-.184m-17.927-.48c-.062-.062-.22-.069-.354-.015-.147.058-.103.102.112.111.194.008.303-.036.242-.097m17.374-.35c-.13-.157-.275-.248-.322-.201-.101.101.382.654.486.555.04-.038-.034-.197-.164-.354m-.738-.277c0-.101-.036-.184-.08-.184-.046 0-.133.083-.196.184-.063.102-.026.185.081.185.108 0 .195-.083.195-.185m.369-.254c0-.038-.145-.183-.322-.322-.293-.23-.3-.223-.07.07.24.306.392.404.392.252m-23.13-1.404c.063-.102.027-.185-.08-.185-.108 0-.196.083-.196.185s.037.184.081.184.133-.083.196-.184m.78-.48c-.061-.062-.22-.068-.353-.015-.147.059-.104.103.111.111.194.008.303-.035.242-.096m13.095 243.829c-.246-.616-.232-.812.164-2.337.485-1.865.872-2.589 2.076-3.883 1.363-1.466 2.177-1.692 2.494-.694.244.77-2.34 6.422-3.22 7.037-.912.64-1.22.615-1.514-.123m-8.88.016c-.274-.253-.626-.768-.783-1.143-.157-.376-.656-1.252-1.11-1.946-1.06-1.625-1.277-2.235-1.003-2.835.164-.36.297-.432.622-.335.759.227 1.88.962 2.645 1.736.872.881 1.001 1.108 1.633 2.864l.465 1.29-.47.415c-.62.546-1.38.529-2-.046m4.256-.507c-.245-.228-.631-.912-.858-1.52-1.48-3.964-2.49-7.34-2.325-7.77.053-.137.362-.247.693-.247.487 0 .78.191 1.578 1.036 1.657 1.752 2.59 4.082 2.886 7.205.082.869.045.998-.385 1.336-.615.484-1.037.474-1.589-.04m-38.94-16.412c.314-.23.314-.251 0-.507-.29-.235-.315-.233-.219.025.068.18.01.292-.15.292-.17 0-.246-.175-.221-.504.021-.277-.066-.629-.193-.782-.278-.336-.126-.443.648-.458.696-.014.791.173.663 1.31-.081.718-.162.864-.477.864-.358 0-.36-.014-.052-.24M134.16-6.612c-.309-.18-.328-.674-.308-7.758.011-4.161.065-7.68.118-7.818.053-.14.192-.206.308-.148s.087-.006-.065-.14c-.404-.356-.413-3.097-.012-3.437.158-.134.184-.191.058-.127-.127.064-.23.029-.23-.078 0-.108.124-.196.276-.196.242 0 .276 1.23.276 9.953 0 5.473-.02 9.95-.046 9.946a3 3 0 0 1-.375-.197m.237-15.186c0-.152-.08-.277-.179-.277s-.13.125-.072.277.139.276.178.276c.04 0 .073-.124.073-.276m-305.894-34.786c-.21-.256-.204-1.327.008-1.539.074-.075.135-.036.135.086 0 .165.095.17.373.022.382-.204.733-.11.733.197 0 .096-.088.174-.195.174s-.137-.094-.066-.208c.258-.418-.368-.037-.725.441-.3.403-.323.536-.127.772.13.157.195.285.145.285s-.177-.104-.281-.23zm6.732-5.613c.228-.044.602-.044.83 0s.041.08-.415.08-.643-.036-.415-.08m146.563-.964c0-.108.187-.203.415-.21.228-.008.56-.042.737-.076s.323.008.323.094c0 .087-.146.148-.323.137a2.4 2.4 0 0 0-.737.116c-.256.084-.415.06-.415-.06m-1.048-.14c.108-.176.887-.42 2.246-.704.387-.081.496-.057.362.079-.105.107-.602.273-1.105.369-.504.096-1.074.235-1.268.31-.225.087-.31.068-.235-.054m-160.12-7.428c-.063-.102-.031-.185.07-.185s.236.083.298.185c.063.101.031.184-.07.184s-.236-.083-.298-.184m-2.857-2.407c0-.107.083-.144.184-.081.102.062.185.15.185.195s-.083.081-.185.081c-.1 0-.184-.088-.184-.195m-.587-.3c.133-.053.292-.046.353.015s-.048.105-.242.097c-.215-.009-.258-.053-.111-.111" clip-path="url(#a)" style="fill:#3e596d;fill-opacity:1" transform="translate(-58.184 -23.136)"/></svg>